
        <svg xmlns="http://www.w3.org/2000/svg" xmlns:xlink="http://www.w3.org/1999/xlink" version="1.1" width="3147.783251231527" height="1788.177339901478" viewBox="0 0 3147.783251231527 1788.177339901478">
			
			<g transform="scale(7.389162561576355) translate(10, 10)">
				<defs id="SvgjsDefs1504"/><g id="SvgjsG1505" featureKey="symbolFeature-0" transform="matrix(1.680935943984533,0,0,1.680935943984533,-8.404679719922665,26.97660140038667)" fill="#000"><title xmlns="http://www.w3.org/2000/svg">buildings-2</title><desc xmlns="http://www.w3.org/2000/svg">Created with Sketch.</desc><g xmlns="http://www.w3.org/2000/svg" stroke="none" stroke-width="1" fill-rule="evenodd" xmlns:sketch="http://www.bohemiancoding.com/sketch/ns" sketch:type="MSPage"><path d="M66.805,25 L55.671,31.334 L55.292,31.987 L55.292,32.948 L23.542,32.948 L23,33.178 L5,51.952 L5.542,53.222 L7.041,53.222 L7.041,74.795 L8.543,74.795 L8.543,73.022 L20.292,73.022 L20.292,74.795 L21.792,74.795 L21.792,53.222 L55.292,53.222 L55.292,74.795 L56.793,74.795 L56.793,35.721 L67.176,29.814 L77.561,35.722 L77.561,74.795 L79.06,74.795 L79.06,53.619 L90.394,58.585 L90.394,74.795 L91.893,74.795 L91.893,59.243 L93.635,60.006 L94.236,58.633 L79.06,51.982 L79.06,31.987 L78.681,31.334 L67.548,25 L66.805,25 Z M56.793,32.423 L67.176,26.516 L77.561,32.423 L77.561,33.995 L67.548,28.298 L66.805,28.298 L56.793,33.995 L56.793,32.423 Z M23.862,34.447 L55.292,34.447 L55.292,49.011 L9.899,49.011 L23.862,34.447 Z M8.462,50.511 L55.292,50.511 L55.292,51.722 L7.301,51.722 L8.462,50.511 Z M8.543,53.222 L20.292,53.222 L20.292,63.063 L8.543,63.063 L8.543,53.222 Z M8.543,63.561 L20.292,63.561 L20.292,66.216 L8.543,66.216 L8.543,63.561 Z M8.543,66.715 L20.292,66.715 L20.292,69.369 L8.543,69.369 L8.543,66.715 Z M8.543,69.869 L20.292,69.869 L20.292,72.523 L8.543,72.523 L8.543,69.869 Z M62.06,49.255 L72.254,49.255 L72.254,38.85 L62.06,38.85 L62.06,49.255 Z M62.06,67.435 L72.254,67.435 L72.254,57.029 L62.06,57.029 L62.06,67.435 Z M42.348,67.435 L52.541,67.435 L52.541,57.029 L42.348,57.029 L42.348,67.435 Z M26.806,67.435 L36.999,67.435 L36.999,57.029 L26.806,57.029 L26.806,67.435 Z" sketch:type="MSShapeGroup"/></g></g><g id="SvgjsG1506" featureKey="textGroupContainer" transform="matrix(1,0,0,1,405,0)" fill="#000"><rect xmlns="http://www.w3.org/2000/svg" y="0" height="1" width="1" opacity="0"/><rect xmlns="http://www.w3.org/2000/svg" y="0" x="-235" width="3" height="222"/></g><g id="SvgjsG1507" featureKey="vMvB0T-0" transform="matrix(7.942811659096356,0,0,7.942811659096356,176.08578535192626,6.75457301600143)" fill="#000"><path d="M4.66 15.96 l-0.02 1.44 l0 0.02 q0.92 -0.04 1.48 -0.04 l4.64 0 q0 0.74 -0.06 1.14 q-0.24 1.54 -2.04 1.54 l-5.32 0 q-0.86 0 -1.35 -0.5 t-0.49 -1.36 l0 -11.72 l0.14 -0.14 l8.62 0 q0.12 0.58 0.12 1.26 t-0.28 1.42 l-5.46 0 l0.02 1.44 l0 1.4 q0.52 -0.02 1.36 -0.02 l3.06 0 q0.18 0.56 0.18 1.28 t-0.18 1.32 l-4.42 0 l0 1.52 z M18.04 17.3 l3.46 0 q0 0.8 -0.1 1.37 t-0.64 0.98 t-1.42 0.41 l-4.52 0 q-0.86 0 -1.36 -0.5 t-0.5 -1.36 l0 -11.86 l0.14 -0.14 l1.18 0 q1.88 0 1.88 2.04 l0 9.14 q0.88 -0.08 1.88 -0.08 z M23.459999999999997 20 l0 -13.66 q0.62 -0.12 1.6 -0.12 t1.62 0.12 l0 13.66 q-0.64 0.12 -1.62 0.12 t-1.6 -0.12 z"/></g>
			</g>
		</svg>
	